<svg width="41" height="41" viewBox="0 0 41 41" fill="none" xmlns="http://www.w3.org/2000/svg">
<path d="M27.6942 23.3554V28.2991C27.6942 32.4796 25.9791 36.5915 23.0635 39.9959H18.7115C22.0988 37.0803 24.6199 33.0327 24.6199 28.2991V23.3554C24.6199 22.1306 24.1334 20.956 23.2674 20.09C22.4014 19.224 21.2268 18.7375 20.0021 18.7375C18.7774 18.7375 17.6028 19.224 16.7368 20.09C15.8707 20.956 15.3842 22.1306 15.3842 23.3554V27.1843C15.3657 28.6252 14.9573 30.0343 14.2024 31.2618C13.4474 32.4893 12.3741 33.4895 11.0965 34.1561L0.0170898 39.7301V36.2999L9.71587 31.4248C10.4925 31.023 11.1456 30.4179 11.6054 29.6742C12.0653 28.9304 12.3147 28.0758 12.3271 27.2014V23.3554C12.3271 21.3153 13.1375 19.3587 14.5801 17.9162C16.0226 16.4736 17.9791 15.6632 20.0192 15.6632C22.0593 15.6632 24.0158 16.4736 25.4584 17.9162C26.901 19.3587 27.7114 21.3153 27.7114 23.3554H27.6942Z" fill="#45B649"/>
<path d="M21.5371 23.3554V27.7159C21.5371 32.7197 18.5742 37.1489 13.3904 39.8673C13.3089 39.9145 13.2232 39.9531 13.1289 40.0002H6.30713C8.50243 38.8854 10.5562 37.8564 12.0012 37.1317C16.1002 34.9879 18.4628 31.5577 18.4628 27.6988V23.3554C18.4836 22.9617 18.6546 22.5911 18.9406 22.3198C19.2266 22.0485 19.6057 21.8973 19.9999 21.8973C20.3941 21.8973 20.7733 22.0485 21.0593 22.3198C21.3452 22.5911 21.5163 22.9617 21.5371 23.3554Z" fill="#45B649"/>
<path d="M33.8729 40.0002H26.9312L28.6762 37.5819C28.8222 37.3805 29.0101 37.2132 29.2272 37.0916C29.4442 36.9701 29.6851 36.8972 29.9331 36.878C30.1811 36.8588 30.4303 36.8938 30.6634 36.9806C30.8966 37.0673 31.108 37.2038 31.2832 37.3804L33.8729 40.0002Z" fill="#45B649"/>
<path d="M3.06142 14.4712L19.3976 3.25888C19.5751 3.13758 19.785 3.07268 20 3.07268C20.215 3.07268 20.4249 3.13758 20.6024 3.25888L36.9214 14.4455V29.8255C36.9217 30.1644 37.0558 30.4896 37.2945 30.7302L40.0172 33.4443V14.4455C40.0177 13.9515 39.8977 13.4648 39.6676 13.0277C39.4375 12.5906 39.1041 12.2163 38.6965 11.9372L22.3389 0.720559C21.6485 0.251054 20.8328 0 19.9979 0C19.1629 0 18.3472 0.251054 17.6568 0.720559L1.32062 11.9372C0.913019 12.2163 0.579685 12.5906 0.349549 13.0277C0.119413 13.4648 -0.00057122 13.9515 2.04459e-06 14.4455V32.8355L3.07429 31.2919L3.06142 14.4712Z" fill="#45B649"/>
<path d="M40.0174 37.4447V40.0174H38.2209L33.0799 34.8292C31.6009 33.3379 30.773 31.3213 30.7774 29.2209V18.3945C30.777 18.1712 30.7221 17.9514 30.6175 17.7541C30.5129 17.5569 30.3617 17.3881 30.1771 17.2625L22.9523 12.2974C22.0844 11.7086 21.0598 11.3939 20.011 11.3939C18.9622 11.3939 17.9375 11.7086 17.0696 12.2974L9.83624 17.2625C9.65269 17.3889 9.50255 17.5579 9.39874 17.755C9.29493 17.9522 9.24055 18.1716 9.24025 18.3945V26.6697C9.23702 27.1301 9.10629 27.5805 8.86258 27.9711C8.61887 28.3616 8.2717 28.677 7.85961 28.8822L6.14453 29.7397V18.3945C6.14484 17.6722 6.32061 16.9608 6.65671 16.3214C6.99281 15.6821 7.47918 15.134 8.074 14.7242L15.3074 9.76332C16.6883 8.82431 18.3196 8.3222 19.9895 8.3222C21.6595 8.3222 23.2908 8.82431 24.6717 9.76332L31.8965 14.7242C32.4918 15.1337 32.9788 15.6817 33.3157 16.321C33.6525 16.9603 33.8291 17.6719 33.8302 18.3945V29.2209C33.8332 30.5058 34.3414 31.7379 35.2452 32.6511L40.0174 37.4447Z" fill="#45B649"/>
</svg>
