<svg width="98" height="29" viewBox="0 0 98 29" fill="none" xmlns="http://www.w3.org/2000/svg">
<path d="M89.6816 0.0128634L79.9871 11.4396V17.1508H88.5625C89.3221 17.1508 90.0506 17.4526 90.5878 17.9897C91.1249 18.5269 91.4267 19.2554 91.4267 20.015C91.4267 20.7746 91.1249 21.5032 90.5878 22.0403C90.0506 22.5774 89.3221 22.8792 88.5625 22.8792H74.263V0.0128634H68.5518V28.5776H88.5625C90.8368 28.5776 93.018 27.6741 94.6262 26.0659C96.2344 24.4577 97.1379 22.2765 97.1379 20.0021C97.1379 17.7278 96.2344 15.5466 94.6262 13.9384C93.018 12.3302 90.8368 11.4267 88.5625 11.4267H87.4048L97.1122 0L89.6816 0.0128634Z" fill="#636466"/>
<path d="M43.9704 0.0128481L34.2759 11.4396V17.1508H42.8513C43.6087 17.1508 44.335 17.4517 44.8706 17.9872C45.4061 18.5227 45.7069 19.2491 45.7069 20.0064C45.7069 20.7638 45.4061 21.4901 44.8706 22.0256C44.335 22.5612 43.6087 22.862 42.8513 22.862H8.56683C7.80948 22.862 7.08314 22.5612 6.54761 22.0256C6.01208 21.4901 5.71122 20.7638 5.71122 20.0064V0.0128481H0V20.0064C0 21.1326 0.221809 22.2477 0.652764 23.2881C1.08372 24.3285 1.71538 25.2738 2.51168 26.0701C4.11988 27.6784 6.30107 28.5818 8.57541 28.5818H42.8513C45.1257 28.5818 47.3069 27.6784 48.9151 26.0701C50.5233 24.4619 51.4267 22.2808 51.4267 20.0064C51.4267 17.7321 50.5233 15.5509 48.9151 13.9427C47.3069 12.3345 45.1257 11.431 42.8513 11.431H41.7065L51.4139 0.00427246L43.9704 0.0128481Z" fill="#636466"/>
<path d="M62.8362 11.4396H57.125V28.5775H62.8362V11.4396Z" fill="#636466"/>
<path d="M11.4224 5.72836V14.3038C11.4224 15.0611 11.7232 15.7875 12.2588 16.323C12.7943 16.8585 13.5206 17.1594 14.278 17.1594H28.5603V11.4396H17.1379V5.72836H11.4224Z" fill="#636466"/>
<path d="M34.2759 7.97083L41.0376 0.0128479H39.181L34.2759 5.7841V7.97083Z" fill="#636466"/>
</svg>
