<svg width="20" height="21" viewBox="0 0 20 21" fill="none" xmlns="http://www.w3.org/2000/svg">
<path d="M9 2.52527C8.44772 2.52527 8 2.97298 8 3.52527C8 4.07755 8.44772 4.52527 9 4.52527H11C11.5523 4.52527 12 4.07755 12 3.52527C12 2.97298 11.5523 2.52527 11 2.52527H9Z" fill="#808080"/>
<path fill-rule="evenodd" clip-rule="evenodd" d="M4 5.52527C4 4.4207 4.89543 3.52527 6 3.52527C6 5.18212 7.34315 6.52527 9 6.52527H11C12.6569 6.52527 14 5.18212 14 3.52527C15.1046 3.52527 16 4.4207 16 5.52527V16.5253C16 17.6298 15.1046 18.5253 14 18.5253H6C4.89543 18.5253 4 17.6298 4 16.5253V5.52527ZM7 9.52527C6.44772 9.52527 6 9.97298 6 10.5253C6 11.0776 6.44772 11.5253 7 11.5253H7.01C7.56228 11.5253 8.01 11.0776 8.01 10.5253C8.01 9.97298 7.56228 9.52527 7.01 9.52527H7ZM10 9.52527C9.44772 9.52527 9 9.97298 9 10.5253C9 11.0776 9.44772 11.5253 10 11.5253H13C13.5523 11.5253 14 11.0776 14 10.5253C14 9.97298 13.5523 9.52527 13 9.52527H10ZM7 13.5253C6.44772 13.5253 6 13.973 6 14.5253C6 15.0776 6.44772 15.5253 7 15.5253H7.01C7.56228 15.5253 8.01 15.0776 8.01 14.5253C8.01 13.973 7.56228 13.5253 7.01 13.5253H7ZM10 13.5253C9.44772 13.5253 9 13.973 9 14.5253C9 15.0776 9.44772 15.5253 10 15.5253H13C13.5523 15.5253 14 15.0776 14 14.5253C14 13.973 13.5523 13.5253 13 13.5253H10Z" fill="#808080"/>
</svg>
