<svg width="20" height="21" viewBox="0 0 20 21" fill="none" xmlns="http://www.w3.org/2000/svg">
<path d="M8 3.52527C8 2.97298 8.44772 2.52527 9 2.52527H11C11.5523 2.52527 12 2.97298 12 3.52527C12 4.07755 11.5523 4.52527 11 4.52527H9C8.44772 4.52527 8 4.07755 8 3.52527Z" fill="#808080"/>
<path d="M6 3.52527C4.89543 3.52527 4 4.4207 4 5.52527V16.5253C4 17.6298 4.89543 18.5253 6 18.5253H14C15.1046 18.5253 16 17.6298 16 16.5253V5.52527C16 4.4207 15.1046 3.52527 14 3.52527C14 5.18212 12.6569 6.52527 11 6.52527H9C7.34315 6.52527 6 5.18212 6 3.52527Z" fill="#808080"/>
</svg>
