<svg width="16" height="32" viewBox="0 0 16 32" fill="none" xmlns="http://www.w3.org/2000/svg">
<path d="M6.625 7C6.00368 7 5.5 7.50368 5.5 8.125C5.5 8.74632 6.00368 9.25 6.625 9.25H8.875C9.49632 9.25 10 8.74632 10 8.125C10 7.50368 9.49632 7 8.875 7H6.625Z" fill="#808080"/>
<path fill-rule="evenodd" clip-rule="evenodd" d="M1 10.375C1 9.13236 2.00736 8.125 3.25 8.125C3.25 9.98896 4.76104 11.5 6.625 11.5H8.875C10.739 11.5 12.25 9.98896 12.25 8.125C13.4926 8.125 14.5 9.13236 14.5 10.375V22.75C14.5 23.9926 13.4926 25 12.25 25H3.25C2.00736 25 1 23.9926 1 22.75V10.375ZM11.9205 16.7955C12.3598 16.3562 12.3598 15.6438 11.9205 15.2045C11.4812 14.7652 10.7688 14.7652 10.3295 15.2045L6.625 18.909L5.1705 17.4545C4.73116 17.0152 4.01885 17.0152 3.57951 17.4545C3.14017 17.8938 3.14017 18.6062 3.57951 19.0455L5.82951 21.2955C6.26885 21.7348 6.98116 21.7348 7.4205 21.2955L11.9205 16.7955Z" fill="#808080"/>
</svg>
