<svg width="44" height="47" viewBox="0 0 44 47" fill="none" xmlns="http://www.w3.org/2000/svg">
<g filter="url(#filter0_d_3049_15268)">
<path d="M32.5827 11.7499C32.1827 11.6833 31.766 11.6666 31.3327 11.6666H14.6659C14.1993 11.6666 13.7493 11.6999 13.3159 11.7666C13.5493 11.2999 13.8826 10.8667 14.2826 10.4667L19.6993 5.03331C21.9827 2.76665 25.6827 2.76665 27.966 5.03331L30.8827 7.98325C31.9493 9.03325 32.516 10.3666 32.5827 11.7499Z" fill="#6366F1"/>
<path d="M11.3332 25C7.64984 25 4.6665 27.9833 4.6665 31.6667C4.6665 32.9167 5.0165 34.1 5.63317 35.1C6.78317 37.0333 8.89984 38.3333 11.3332 38.3333C13.7665 38.3333 15.8832 37.0333 17.0332 35.1C17.6498 34.1 17.9998 32.9167 17.9998 31.6667C17.9998 27.9833 15.0165 25 11.3332 25ZM13.8165 32.8833H12.5832V34.1833C12.5832 34.8667 12.0165 35.4333 11.3332 35.4333C10.6498 35.4333 10.0832 34.8667 10.0832 34.1833V32.8833H8.84984C8.1665 32.8833 7.59984 32.3167 7.59984 31.6333C7.59984 30.95 8.1665 30.3833 8.84984 30.3833H10.0832V29.2C10.0832 28.5167 10.6498 27.95 11.3332 27.95C12.0165 27.95 12.5832 28.5167 12.5832 29.2V30.3833H13.8165C14.4998 30.3833 15.0665 30.95 15.0665 31.6333C15.0665 32.3167 14.5165 32.8833 13.8165 32.8833Z" fill="#6366F1"/>
<path opacity="0.4" d="M39.6668 20V28.3334C39.6668 33.3333 36.3335 36.6667 31.3335 36.6667H15.7168C16.2335 36.2333 16.6835 35.7 17.0335 35.1C17.6502 34.1 18.0002 32.9167 18.0002 31.6667C18.0002 27.9834 15.0168 25 11.3335 25C9.3335 25 7.55016 25.8834 6.3335 27.2667V20C6.3335 15.4667 9.06683 12.3 13.3168 11.7667C13.7502 11.7 14.2002 11.6667 14.6668 11.6667H31.3335C31.7668 11.6667 32.1835 11.6833 32.5835 11.75C36.8835 12.25 39.6668 15.4334 39.6668 20Z" fill="#6366F1"/>
<path d="M39.6668 20.8333H34.6668C32.8335 20.8333 31.3335 22.3333 31.3335 24.1666C31.3335 26 32.8335 27.5 34.6668 27.5H39.6668" fill="#6366F1"/>
</g>
<defs>
<filter id="filter0_d_3049_15268" x="-1" y="0" width="48" height="48" filterUnits="userSpaceOnUse" color-interpolation-filters="sRGB">
<feFlood flood-opacity="0" result="BackgroundImageFix"/>
<feColorMatrix in="SourceAlpha" type="matrix" values="0 0 0 0 0 0 0 0 0 0 0 0 0 0 0 0 0 0 127 0" result="hardAlpha"/>
<feOffset dy="4"/>
<feGaussianBlur stdDeviation="2"/>
<feComposite in2="hardAlpha" operator="out"/>
<feColorMatrix type="matrix" values="0 0 0 0 0 0 0 0 0 0 0 0 0 0 0 0 0 0 0.25 0"/>
<feBlend mode="normal" in2="BackgroundImageFix" result="effect1_dropShadow_3049_15268"/>
<feBlend mode="normal" in="SourceGraphic" in2="effect1_dropShadow_3049_15268" result="shape"/>
</filter>
</defs>
</svg>
