<svg width="40" height="40" viewBox="0 0 40 40" fill="none" xmlns="http://www.w3.org/2000/svg">
<path opacity="0.4" d="M24.6487 6.66669H15.3486C7.98193 6.66669 7.98193 10.5834 7.98193 14.0334V20.35C7.98193 20.7167 8.1486 21.05 8.43193 21.2667C8.71527 21.4834 9.0986 21.5667 9.4486 21.4667C10.1986 21.2667 11.1319 21.1667 12.2486 21.1667C13.3653 21.1667 13.5986 21.3 14.2653 21.8L15.7819 23.4C16.8653 24.5667 18.4153 25.2334 20.0153 25.2334C21.6153 25.2334 23.1487 24.5667 24.2487 23.4L25.7653 21.8C26.432 21.3 26.6653 21.1667 27.782 21.1667C28.8987 21.1667 29.832 21.2667 30.582 21.4667C30.932 21.5667 31.2987 21.4834 31.5987 21.2667C31.882 21.05 32.0487 20.7 32.0487 20.35V14.0334C32.0153 10.5834 32.0153 6.66669 24.6487 6.66669Z" fill="#45B649"/>
<path d="M23.7907 11.3333C23.3573 10.9 22.6407 10.9 22.2073 11.3333L21.124 12.4166V4.44998C21.124 3.83331 20.6073 3.33331 19.9907 3.33331C19.374 3.33331 18.8573 3.83331 18.8573 4.44998V12.4L17.7907 11.3333C17.3573 10.9 16.6407 10.9 16.2073 11.3333C15.774 11.7666 15.774 12.4833 16.2073 12.9166L19.2073 15.9166C19.224 15.9333 19.224 15.9333 19.2407 15.9333C19.3407 16.0166 19.4407 16.1 19.574 16.15C19.7073 16.2 19.8573 16.2333 20.0073 16.2333C20.1573 16.2333 20.2907 16.2 20.4407 16.15C20.574 16.1 20.7073 16.0166 20.8073 15.9L23.8073 12.9C24.224 12.4833 24.224 11.7666 23.7907 11.3333Z" fill="#45B649"/>
<path d="M31.1495 19.2163C30.1995 18.9663 29.0828 18.833 27.7495 18.833C25.8995 18.833 25.2162 19.283 24.2662 19.9997C24.2162 20.033 24.1662 20.083 24.1162 20.133L22.5328 21.8163C21.1995 23.2163 18.7995 23.233 17.4662 21.7997L15.8828 20.133C15.8328 20.083 15.7828 20.033 15.7328 19.9997C14.7828 19.283 14.0995 18.833 12.2495 18.833C10.9161 18.833 9.79948 18.9663 8.84948 19.2163C4.88281 20.283 4.88281 23.433 4.88281 26.1997V27.7497C4.88281 31.933 4.88281 36.6663 13.7995 36.6663H26.1995C32.1162 36.6663 35.1162 33.6663 35.1162 27.7497V26.1997C35.1162 23.433 35.1162 20.283 31.1495 19.2163ZM23.8828 30.6663H16.1161C15.4828 30.6663 14.9661 30.1497 14.9661 29.4997C14.9661 28.8497 15.4828 28.333 16.1161 28.333H23.8828C24.5162 28.333 25.0328 28.8497 25.0328 29.4997C25.0328 30.1497 24.5162 30.6663 23.8828 30.6663Z" fill="#45B649"/>
<path opacity="0.4" d="M25.034 29.5C25.034 30.15 24.5173 30.6666 23.884 30.6666H16.1173C15.484 30.6666 14.9673 30.15 14.9673 29.5C14.9673 28.85 15.484 28.3333 16.1173 28.3333H23.884C24.5173 28.3333 25.034 28.85 25.034 29.5Z" fill="#45B649"/>
</svg>
