<svg width="800" height="800" viewBox="0 0 800 800" fill="none" xmlns="http://www.w3.org/2000/svg">
<g clip-path="url(#clip0_1_2)">
<path fill-rule="evenodd" clip-rule="evenodd" d="M680.74 684.895C605.253 759.301 503.316 800.698 397.325 799.992C291.334 799.285 189.959 756.534 115.47 681.128C124.996 654.784 143.499 632.638 167.729 618.578C184.059 606.504 201.767 596.414 220.48 588.52C192.026 490.746 269.373 442.681 298.965 428.843C298.965 473.982 341.231 444.027 393.684 444.597C436.869 445.076 522.267 488.545 522.267 431.199C569.775 445.257 621.555 535.795 585.918 591.419C600.529 598.564 614.334 607.252 627.096 617.335C652.045 633.211 670.937 656.996 680.74 684.895Z" fill="#45B649"/>
<path fill-rule="evenodd" clip-rule="evenodd" d="M311.095 500.714L504.235 501.879V546.371L504.144 547.057C504.01 549.072 503.707 551.073 503.238 553.037L502.591 557.452L502.202 558.371C489.697 624.054 434.979 649.439 401.192 667.122C365.593 647.73 315.263 612.792 311.263 550.979L311.095 550.215V547.626C311.067 546.733 311.05 545.84 311.043 544.947C311.043 545.413 311.082 545.853 311.095 546.319V500.714Z" fill="#F9DCA4"/>
<path opacity="0.11" fill-rule="evenodd" clip-rule="evenodd" d="M504.248 499.898V551.743C504.21 556.549 503.799 561.344 503.018 566.086C502.038 571.955 500.387 577.693 498.099 583.186C430.992 633.866 324.066 592.3 306.991 505.736L504.248 499.898Z" fill="black"/>
<path fill-rule="evenodd" clip-rule="evenodd" d="M234.357 326.668C170.408 343.108 224.777 421.037 264.998 420.7C248.778 391.642 238.371 359.704 234.357 326.668Z" fill="#F9DCA4"/>
<path fill-rule="evenodd" clip-rule="evenodd" d="M567.471 326.668C631.42 343.108 577.05 421.037 536.817 420.687C553.041 391.635 563.453 359.7 567.471 326.668Z" fill="#F9DCA4"/>
<path fill-rule="evenodd" clip-rule="evenodd" d="M397.839 147.068C663.51 147.068 559.976 567.083 397.839 567.083C244.7 567.083 132.169 147.068 397.839 147.068Z" fill="#FFE8BE"/>
<path fill-rule="evenodd" clip-rule="evenodd" d="M272.454 286.15C274.72 288.634 276.401 291.595 277.373 294.814C278.344 298.034 278.581 301.43 278.067 304.753C277.553 308.077 276.301 311.242 274.402 314.018C272.503 316.793 270.006 319.107 267.095 320.791C248.324 336.234 247.638 390.085 247.638 390.085C240.389 382.888 240.557 344.338 224.842 322.059C209.127 299.781 198.538 143.897 286.422 87.2107C281.021 93.5628 277.129 101.055 275.037 109.126C272.946 117.197 272.708 125.637 274.344 133.813C274.344 133.813 335.393 46.2655 436.675 48.7898C428.645 53.168 421.628 59.1889 416.081 66.4601C410.534 73.7313 406.581 82.0897 404.48 90.9906C404.48 90.9906 493.024 54.4597 566.811 97.9162C547.627 103.219 529.483 111.741 513.154 123.12C548.986 124.104 583.613 130.758 609.724 153.981C604.104 155.785 598.904 158.697 594.428 162.545C589.953 166.393 586.295 171.098 583.669 176.384C581.043 181.669 579.503 187.427 579.14 193.318C578.777 199.209 579.598 205.112 581.555 210.68C592.636 256.027 593.672 298.215 582.94 320.894C572.209 343.574 567.147 328.933 560.429 376.493C560.1 379.706 559.028 382.798 557.298 385.526C555.568 388.253 553.227 390.541 550.461 392.208C550.202 395.652 555.406 343.587 541.982 329.723C528.571 315.872 536.998 298.849 542.358 288.778C579.769 218.525 467.73 186.693 406.487 186.771C353.373 186.836 225.256 210.978 272.454 286.15Z" fill="#78350F"/>
<path fill-rule="evenodd" clip-rule="evenodd" d="M256.182 636.403C256.57 636.895 391.043 810.941 549.128 633.814C530.034 686.268 447.678 727.925 400.571 727.795C310.603 727.536 260.816 655.303 256.182 636.403Z" fill="#248232"/>
<path fill-rule="evenodd" clip-rule="evenodd" d="M470.37 793.828C465.063 794.76 459.73 795.575 454.357 796.313V680.624C454.554 678.686 455.502 676.902 456.997 675.654C458.492 674.406 460.416 673.792 462.357 673.944C464.301 673.788 466.229 674.401 467.727 675.649C469.224 676.898 470.173 678.683 470.37 680.624V793.828ZM343.25 795.977C337.882 795.209 332.545 794.346 327.237 793.388V680.624C327.434 678.686 328.381 676.902 329.877 675.654C331.372 674.406 333.296 673.792 335.237 673.944C337.183 673.785 339.114 674.395 340.615 675.644C342.115 676.893 343.066 678.681 343.263 680.624L343.25 795.977Z" fill="#E6E6E6"/>
</g>
<defs>
<clipPath id="clip0_1_2">
<rect width="800" height="800" fill="white"/>
</clipPath>
</defs>
</svg>
