<svg width="20" height="21" viewBox="0 0 20 21" fill="none" xmlns="http://www.w3.org/2000/svg">
<path d="M13 6.02539C13 7.68224 11.6569 9.02539 10 9.02539C8.34315 9.02539 7 7.68224 7 6.02539C7 4.36854 8.34315 3.02539 10 3.02539C11.6569 3.02539 13 4.36854 13 6.02539Z" fill="#808080"/>
<path d="M18 8.02539C18 9.12996 17.1046 10.0254 16 10.0254C14.8954 10.0254 14 9.12996 14 8.02539C14 6.92082 14.8954 6.02539 16 6.02539C17.1046 6.02539 18 6.92082 18 8.02539Z" fill="#808080"/>
<path d="M14 15.0254C14 12.8163 12.2091 11.0254 10 11.0254C7.79086 11.0254 6 12.8163 6 15.0254V18.0254H14V15.0254Z" fill="#808080"/>
<path d="M6 8.02539C6 9.12996 5.10457 10.0254 4 10.0254C2.89543 10.0254 2 9.12996 2 8.02539C2 6.92082 2.89543 6.02539 4 6.02539C5.10457 6.02539 6 6.92082 6 8.02539Z" fill="#808080"/>
<path d="M16 18.0254V15.0254C16 13.9712 15.7282 12.9806 15.2507 12.1197C15.4902 12.0581 15.7413 12.0254 16 12.0254C17.6569 12.0254 19 13.3685 19 15.0254V18.0254H16Z" fill="#808080"/>
<path d="M4.74926 12.1197C4.27185 12.9806 4 13.9712 4 15.0254V18.0254H1V15.0254C1 13.3685 2.34315 12.0254 4 12.0254C4.25871 12.0254 4.50977 12.0581 4.74926 12.1197Z" fill="#808080"/>
</svg>
