<svg width="40" height="40" viewBox="0 0 40 40" fill="none" xmlns="http://www.w3.org/2000/svg">
<path opacity="0.4" d="M24.6487 10H15.3486C7.98193 10 7.98193 13.9167 7.98193 17.3667V20.35C7.98193 20.7167 8.1486 21.05 8.43193 21.2667C8.71527 21.4833 9.0986 21.5667 9.4486 21.4667C10.1986 21.2667 11.1319 21.1667 12.2486 21.1667C13.3653 21.1667 13.5986 21.3 14.2653 21.8L15.7819 23.4C16.8653 24.5667 18.4153 25.2333 20.0153 25.2333C21.6153 25.2333 23.1487 24.5667 24.2487 23.4L25.7653 21.8C26.432 21.3 26.6653 21.1667 27.782 21.1667C28.8987 21.1667 29.832 21.2667 30.582 21.4667C30.932 21.5667 31.2987 21.4833 31.5987 21.2667C31.882 21.05 32.0487 20.7 32.0487 20.35V17.3667C32.0153 13.9167 32.0153 10 24.6487 10Z" fill="#EF4444"/>
<path d="M23.8005 8.24998C23.3672 8.68331 22.6505 8.68331 22.2172 8.24998L21.1338 7.16665V15.1166C21.1338 15.7333 20.6338 16.25 20.0005 16.25C19.3672 16.25 18.8672 15.75 18.8672 15.1166V7.16665L17.7838 8.24998C17.3505 8.68331 16.6338 8.68331 16.2005 8.24998C15.7672 7.81665 15.7672 7.09998 16.2005 6.66665L19.2005 3.66665C19.2172 3.64998 19.2172 3.64998 19.2338 3.64998C19.3338 3.56665 19.4338 3.48331 19.5672 3.43331C19.7172 3.36665 19.8505 3.33331 20.0005 3.33331C20.1505 3.33331 20.2838 3.36665 20.4338 3.41665C20.5672 3.46665 20.7005 3.54998 20.8005 3.66665L23.8005 6.66665C24.2338 7.09998 24.2338 7.81665 23.8005 8.24998Z" fill="#EF4444"/>
<path d="M31.1495 19.2163C30.1995 18.9663 29.0828 18.833 27.7495 18.833C25.8995 18.833 25.2162 19.283 24.2662 19.9997C24.2162 20.033 24.1662 20.083 24.1162 20.133L22.5328 21.8163C21.1995 23.2163 18.7995 23.233 17.4662 21.7997L15.8828 20.133C15.8328 20.083 15.7828 20.033 15.7328 19.9997C14.7828 19.283 14.0995 18.833 12.2495 18.833C10.9161 18.833 9.79948 18.9663 8.84948 19.2163C4.88281 20.283 4.88281 23.433 4.88281 26.1997V27.7497C4.88281 31.933 4.88281 36.6663 13.7995 36.6663H26.1995C32.1162 36.6663 35.1162 33.6663 35.1162 27.7497V26.1997C35.1162 23.433 35.1162 20.283 31.1495 19.2163ZM23.8828 30.6663H16.1161C15.4828 30.6663 14.9661 30.1497 14.9661 29.4997C14.9661 28.8497 15.4828 28.333 16.1161 28.333H23.8828C24.5162 28.333 25.0328 28.8497 25.0328 29.4997C25.0328 30.1497 24.5162 30.6663 23.8828 30.6663Z" fill="#EF4444"/>
<path opacity="0.4" d="M25.034 29.5C25.034 30.15 24.5173 30.6666 23.884 30.6666H16.1173C15.484 30.6666 14.9673 30.15 14.9673 29.5C14.9673 28.85 15.484 28.3333 16.1173 28.3333H23.884C24.5173 28.3333 25.034 28.85 25.034 29.5Z" fill="#EF4444"/>
</svg>
