<svg width="40" height="40" viewBox="0 0 40 40" fill="none" xmlns="http://www.w3.org/2000/svg">
<path d="M29.5827 11.7499C29.1827 11.6833 28.766 11.6666 28.3327 11.6666H11.6659C11.1993 11.6666 10.7493 11.6999 10.3159 11.7666C10.5493 11.2999 10.8826 10.8667 11.2826 10.4667L16.6993 5.03331C18.9827 2.76665 22.6827 2.76665 24.966 5.03331L27.8827 7.98325C28.9493 9.03325 29.516 10.3666 29.5827 11.7499Z" fill="#F59E0B"/>
<path d="M8.33317 25C4.64984 25 1.6665 27.9833 1.6665 31.6667C1.6665 32.9167 2.0165 34.1 2.63317 35.1C3.78317 37.0333 5.89984 38.3333 8.33317 38.3333C10.7665 38.3333 12.8832 37.0333 14.0332 35.1C14.6498 34.1 14.9998 32.9167 14.9998 31.6667C14.9998 27.9833 12.0165 25 8.33317 25ZM10.8165 32.8833C10.1332 32.8833 5.84984 32.8833 5.84984 32.8833C5.1665 32.8833 4.59984 32.3167 4.59984 31.6333C4.59984 30.95 5.1665 30.3833 5.84984 30.3833H10.8165C11.4998 30.3833 12.0665 30.95 12.0665 31.6333C12.0665 32.3167 11.5165 32.8833 10.8165 32.8833Z" fill="#F59E0B"/>
<path opacity="0.4" d="M36.6668 20V28.3334C36.6668 33.3333 33.3335 36.6667 28.3335 36.6667H12.7168C13.2335 36.2333 13.6835 35.7 14.0335 35.1C14.6502 34.1 15.0002 32.9167 15.0002 31.6667C15.0002 27.9834 12.0168 25 8.3335 25C6.3335 25 4.55016 25.8834 3.3335 27.2667V20C3.3335 15.4667 6.06683 12.3 10.3168 11.7667C10.7502 11.7 11.2002 11.6667 11.6668 11.6667H28.3335C28.7668 11.6667 29.1835 11.6833 29.5835 11.75C33.8835 12.25 36.6668 15.4334 36.6668 20Z" fill="#F59E0B"/>
<path d="M36.6668 20.8333H31.6668C29.8335 20.8333 28.3335 22.3333 28.3335 24.1666C28.3335 26 29.8335 27.5 31.6668 27.5H36.6668" fill="#F59E0B"/>
</svg>
