<svg width="50" height="50" viewBox="0 0 50 50" fill="none" xmlns="http://www.w3.org/2000/svg">
<g clip-path="url(#clip0_3412_655)">
<path d="M18.4763 24.57L24.247 18.2055L6.93487 0.83198C5.90131 -0.200097 4.17872 -0.200097 3.14517 0.83198L0.819599 3.15422C-0.213955 4.1863 -0.213955 5.90643 0.819599 6.9385L18.4763 24.57Z" fill="#1B93D7"/>
<path d="M45.8658 49.4261L50 49.9422L49.3971 45.7278L45.6074 43.1476L43.1958 45.6418L45.8658 49.4261Z" fill="#BCBEC0"/>
<path d="M27.52 29.9024L43.2819 45.6418L45.6935 43.2336L29.9316 27.4943L27.52 29.9024Z" fill="#DCDDDE"/>
<path d="M18.9932 19.8396C18.7348 19.8396 18.5625 19.7536 18.3903 19.5816L3.74813 4.96039C3.40362 4.61636 3.40362 4.10027 3.74813 3.75625C4.09265 3.41222 4.60948 3.41222 4.954 3.75625L19.5962 18.3775C19.9407 18.7215 19.9407 19.2376 19.5962 19.5816C19.4239 19.7536 19.2515 19.8396 18.9932 19.8396Z" fill="#034EA2"/>
<path d="M27.5201 14.4211C29.5011 12.443 29.7595 9.34665 27.6924 7.2825C23.6443 3.24012 21.3188 3.67018 16.7539 3.67018C23.6443 0.659983 28.6398 -0.0280684 33.6354 2.29408C35.7887 3.24012 36.65 4.10024 38.3726 5.82036L41.4733 8.91659C42.2484 9.69068 42.7652 10.7228 42.9375 11.7548C43.1958 13.3889 42.7652 13.733 43.8849 14.9371C44.2294 15.2811 44.7462 15.2811 45.0907 14.9371C45.4353 14.5931 45.9521 14.5931 46.2966 14.9371L49.3112 17.9474C50.0002 18.6354 50.0002 19.6675 49.3112 20.3556L43.1959 26.4621C42.5069 27.1501 41.4733 27.1501 40.7843 26.4621L37.942 23.5378C37.5975 23.1938 37.5975 22.6777 37.942 22.3337C38.2865 21.9897 38.2865 21.3876 37.942 21.0436C36.7362 19.8395 36.3916 20.2695 34.7552 20.0976C33.6355 19.9255 32.6881 19.4095 31.9129 18.6354L27.5201 14.4211Z" fill="#9D9FA2"/>
<path d="M27.52 14.4211L0.819588 44.2657C-0.213967 45.2978 -0.30012 47.0179 0.733434 47.9641L1.9393 49.1682C2.97285 50.2003 4.60938 50.1142 5.64294 49.0822L32.4295 19.1517L27.52 14.4211Z" fill="#636466"/>
<path d="M23.2998 29.3005L25.7114 31.7086L31.8267 25.6021L29.0706 22.8499L23.2998 29.3005Z" fill="#1B93D7"/>
</g>
<defs>
<clipPath id="clip0_3412_655">
<rect width="50" height="49.9285" fill="white" transform="translate(0 0.0357666)"/>
</clipPath>
</defs>
</svg>
