<svg width="50" height="50" viewBox="0 0 50 50" fill="none" xmlns="http://www.w3.org/2000/svg">
<g clip-path="url(#clip0_3412_698)">
<path d="M20.7329 44.7993V7.78333H29.3536V44.7993L25.0433 49.9643L20.7329 44.7993Z" fill="#DCDDDE"/>
<path d="M31.0776 43.0775L18.9224 42.2166C18.4051 42.2166 18.0603 41.7862 18.1465 41.2697C18.1465 40.8393 18.5776 40.4089 19.0948 40.495L31.1637 41.3558C31.681 41.3558 32.0258 41.7863 31.9396 42.3027C31.9397 42.7332 31.5086 43.0775 31.0776 43.0775Z" fill="#BCBEC0"/>
<path d="M31.0776 39.6343L18.9224 38.7734C18.4051 38.7734 18.0603 38.343 18.1465 37.8265C18.1465 37.31 18.5776 36.9657 19.0948 37.0518L31.1637 37.9126C31.681 37.9126 32.0258 38.3431 31.9396 38.8595C31.9397 39.29 31.5086 39.6343 31.0776 39.6343Z" fill="#BCBEC0"/>
<path d="M31.0776 36.1909L18.9224 35.3301C18.4051 35.3301 18.0603 34.8996 18.1465 34.3832C18.1465 33.8666 18.5776 33.5223 19.0948 33.6084L31.1637 34.4693C31.681 34.4693 32.0258 34.8997 31.9396 35.4162C31.9397 35.8466 31.5086 36.1909 31.0776 36.1909Z" fill="#BCBEC0"/>
<path d="M31.0776 32.7476L18.9224 31.8867C18.4051 31.8867 18.0603 31.4563 18.1465 30.9398C18.1465 30.4233 18.5776 30.0789 19.0948 30.165L31.1637 31.0259C31.681 31.0259 32.0258 31.4564 31.9396 31.9728C31.9397 32.4032 31.5086 32.7476 31.0776 32.7476Z" fill="#BCBEC0"/>
<path d="M31.0776 29.3042L18.9224 28.4433C18.4051 28.4433 18.0603 28.0129 18.1465 27.4965C18.1465 26.9799 18.5776 26.6356 19.0948 26.7217L31.1637 27.5826C31.681 27.5826 32.0258 28.013 31.9396 28.5294C31.9397 28.9599 31.5086 29.3042 31.0776 29.3042Z" fill="#BCBEC0"/>
<path d="M31.0775 25.8609L18.9224 25C18.4051 25 18.0603 24.5695 18.1465 24.0531C18.1465 23.5365 18.5776 23.1922 19.0948 23.2783L31.1637 24.1392C31.681 24.1392 32.0258 24.5696 31.9396 25.0861C31.9396 25.5165 31.5085 25.8609 31.0775 25.8609Z" fill="#BCBEC0"/>
<path d="M31.0776 22.4175L18.9224 21.5566C18.4051 21.5566 18.0603 21.1262 18.1465 20.6097C18.1465 20.0932 18.5776 19.7489 19.0948 19.835L31.1637 20.6958C31.681 20.6958 32.0258 21.1263 31.9396 21.6427C31.9397 22.0732 31.5086 22.4175 31.0776 22.4175Z" fill="#BCBEC0"/>
<path d="M31.0776 18.9741L18.9224 18.1133C18.4051 18.1133 18.0603 17.6828 18.1465 17.1664C18.1465 16.6498 18.5776 16.3055 19.0948 16.3916L31.1637 17.2525C31.681 17.2525 32.0258 17.6829 31.9396 18.1994C31.9397 18.6298 31.5086 18.9741 31.0776 18.9741Z" fill="#BCBEC0"/>
<path d="M26.7673 0.0357666V3.47908H23.319V0.0357666C18.9225 0.638322 15.3018 3.7374 13.75 7.78327H36.25C34.7845 3.7374 31.1638 0.638322 26.7673 0.0357666Z" fill="#BCBEC0"/>
</g>
<defs>
<clipPath id="clip0_3412_698">
<rect width="50" height="49.9285" fill="white" transform="translate(0 0.0357666)"/>
</clipPath>
</defs>
</svg>
