<svg width="50" height="50" viewBox="0 0 50 50" fill="none" xmlns="http://www.w3.org/2000/svg">
<g clip-path="url(#clip0_3412_196)">
<path d="M30.4312 20.6958H19.569C17.7587 20.6958 16.2932 19.3185 16.1208 17.5969L14.6553 1.75742C14.6553 0.810536 15.4312 0.0357666 16.3794 0.0357666H33.6208C34.569 0.0357666 35.3449 0.810536 35.3449 1.75742L33.8794 17.5969C33.707 19.3185 32.2415 20.6958 30.4312 20.6958Z" fill="#D3B6D7"/>
<path d="M24.9998 37.9126C23.5343 37.9126 22.4136 36.7935 22.4136 35.33V29.3042H27.586V35.33C27.586 36.7935 26.4653 37.9126 24.9998 37.9126Z" fill="#9D9FA2"/>
<path d="M7.7584 7.78325H3.44805C1.98252 7.78325 0.861816 6.66415 0.861816 5.20072C0.861816 3.73729 1.98252 2.61829 3.44805 2.61829H7.7584V7.78325Z" fill="#636466"/>
<path d="M42.2412 2.61829H46.5516C48.0171 2.61829 49.1378 3.73739 49.1378 5.20082C49.1378 6.66425 48.0171 7.78335 46.5516 7.78335H42.2412V2.61829Z" fill="#636466"/>
<path d="M30.4309 20.6958H19.5688C19.3963 20.6958 19.3102 20.6958 19.1377 20.6958L20.4308 27.9269C20.6032 28.7877 21.2929 29.3042 22.1549 29.3042H27.9308C28.7929 29.3042 29.4825 28.7016 29.6549 27.9269L30.9479 20.6958C30.7757 20.6958 30.6032 20.6958 30.4309 20.6958Z" fill="#A066AA"/>
<path d="M25 37.9125C24.3104 37.9125 23.7069 37.6543 23.2759 37.2239V47.3818L25 49.9642L26.7241 47.3817V37.2239C26.2931 37.6543 25.6896 37.9125 25 37.9125Z" fill="#BCBEC0"/>
<path d="M14.8277 3.47913H7.75879V6.92244H15.0863L14.8277 3.47913Z" fill="#9D9FA2"/>
<path d="M35.1725 3.47913L34.8276 6.92244H42.2414V3.47913H35.1725Z" fill="#9D9FA2"/>
<path d="M25.8621 18.1134H24.138C23.6207 18.1134 23.2759 17.769 23.2759 17.2525C23.2759 16.7359 23.6207 16.3916 24.138 16.3916H25.8621C26.3794 16.3916 26.7242 16.7359 26.7242 17.2525C26.7242 17.769 26.3793 18.1134 25.8621 18.1134Z" fill="#A066AA"/>
<path d="M27.5863 14.67H22.4139C21.8966 14.67 21.5518 14.3257 21.5518 13.8091C21.5518 13.2926 21.8966 12.9482 22.4139 12.9482H27.5863C28.1036 12.9482 28.4484 13.2926 28.4484 13.8091C28.4484 14.3257 28.1035 14.67 27.5863 14.67Z" fill="#A066AA"/>
<path d="M29.3105 11.2266H20.6897C20.1725 11.2266 19.8276 10.8823 19.8276 10.3658C19.8276 9.84921 20.1725 9.50488 20.6897 9.50488H29.3105C29.8277 9.50488 30.1726 9.84921 30.1726 10.3658C30.1726 10.8823 29.8276 11.2266 29.3105 11.2266Z" fill="#A066AA"/>
</g>
<defs>
<clipPath id="clip0_3412_196">
<rect width="50" height="49.9285" fill="white" transform="translate(0 0.0357666)"/>
</clipPath>
</defs>
</svg>
