<svg width="50" height="50" viewBox="0 0 50 50" fill="none" xmlns="http://www.w3.org/2000/svg">
<path d="M48.2143 36.6072C47.2321 36.6072 46.4285 35.8035 46.4285 34.8214V31.6964C46.4285 22.0535 39.9999 13.4822 31.2499 10.7143V9.73215C31.2499 8.83928 30.4463 8.03577 29.5535 8.03577H20.4464C19.5535 8.03577 18.75 8.83938 18.75 9.73215V10.7143C10 13.3929 3.57139 21.6072 3.57139 31.25V34.8214C3.57139 35.8035 2.76777 36.6072 1.78564 36.6072H0V41.9643H50V36.6072H48.2143Z" fill="#FFC20E"/>
<path d="M40.1788 37.4822H9.82158C9.28584 37.4822 8.92871 37.1255 8.92871 36.5906C8.92871 36.0556 9.28584 35.699 9.82158 35.699H40.1787C40.7145 35.699 41.0716 36.0556 41.0716 36.5906C41.0716 37.1255 40.7145 37.4822 40.1788 37.4822Z" fill="#F47920"/>
<path d="M31.2498 16.0842C30.7141 16.0842 30.3569 15.7276 30.3569 15.1926V11.6263C30.3569 11.0914 30.7141 10.7347 31.2498 10.7347C31.7855 10.7347 32.1427 11.0914 32.1427 11.6263V15.1926C32.1427 15.7276 31.7855 16.0842 31.2498 16.0842Z" fill="#F47920"/>
<path d="M18.7498 16.0842C18.2141 16.0842 17.8569 15.7276 17.8569 15.1926V11.6263C17.8569 11.0914 18.2141 10.7347 18.7498 10.7347C19.2855 10.7347 19.6427 11.0914 19.6427 11.6263V15.1926C19.6427 15.7276 19.2855 16.0842 18.7498 16.0842Z" fill="#F47920"/>
<path d="M24.9998 20.5422C24.4641 20.5422 24.1069 20.1856 24.1069 19.6506V8.95165C24.1069 8.41668 24.4641 8.06006 24.9998 8.06006C25.5355 8.06006 25.8927 8.41668 25.8927 8.95165V19.6506C25.8927 20.0963 25.5355 20.5422 24.9998 20.5422Z" fill="#F47920"/>
<path d="M36.3393 13.2311L33.0356 23.2168L42.9464 19.9179C41.25 17.2432 39.0179 14.9251 36.3393 13.2311Z" fill="#F47920"/>
<path d="M13.6608 13.2311L16.9645 23.2168L7.05371 19.918C8.7501 17.2432 10.9822 14.9251 13.6608 13.2311Z" fill="#F47920"/>
</svg>
