<svg width="50" height="50" viewBox="0 0 50 50" fill="none" xmlns="http://www.w3.org/2000/svg">
<path d="M49.1524 17.3838L48.305 9.85216C48.305 8.83662 47.5423 8.07501 46.5253 8.07501H42.3728H20.3389V16.876C20.3389 19.6686 22.288 22.1227 24.9999 22.7151C29.1524 23.646 33.5592 23.646 37.7117 22.7151L42.3728 21.615V35.0703C42.3728 36.2551 41.949 37.3553 41.1016 38.1169L40.7626 38.4553C40.1693 39.0478 39.8304 39.894 39.8304 40.7403V41.248C39.8304 42.0943 40.5083 42.7712 41.3558 42.7712H42.3728H47.4575H48.305C49.2372 42.7712 49.9999 42.0096 49.9999 41.0787V30.0775L49.1524 17.3838Z" fill="#45B649"/>
<path d="M10.1695 15.6913H0.847461C0.338965 15.6913 0 15.3528 0 14.845C0 14.3373 0.338965 13.9988 0.847461 13.9988H10.1695C10.678 13.9988 11.017 14.3373 11.017 14.845C11.017 15.3528 10.6779 15.6913 10.1695 15.6913Z" fill="#9D9FA2"/>
<path d="M16.9491 19.0763H12.7118C11.2711 19.0763 10.1694 17.9762 10.1694 16.5375V13.1525C10.1694 11.7139 11.2711 10.6138 12.7118 10.6138H16.9491V19.0763Z" fill="#636466"/>
<path d="M16.9492 25.8463H20.3391V7.22888H16.9492V25.8463Z" fill="#636466"/>
<path d="M22.0339 42.7711H15.2542L16.1017 41.0786V29.2313L14.4067 25.8463H22.8813L21.1864 29.2313V41.0787L22.0339 42.7711Z" fill="#9D9FA2"/>
<path d="M44.068 12.3064H38.9832C38.4747 12.3064 38.1357 11.9679 38.1357 11.4601C38.1357 10.9524 38.4747 10.6139 38.9832 10.6139H44.068C44.5765 10.6139 44.9154 10.9524 44.9154 11.4601C44.9154 11.9679 44.5765 12.3064 44.068 12.3064Z" fill="#636466"/>
<path d="M44.068 15.6913H38.9832C38.4747 15.6913 38.1357 15.3528 38.1357 14.845C38.1357 14.3373 38.4747 13.9988 38.9832 13.9988H44.068C44.5765 13.9988 44.9154 14.3373 44.9154 14.845C44.9154 15.3528 44.5765 15.6913 44.068 15.6913Z" fill="#636466"/>
<path d="M42.373 21.6151L38.1357 22.6306L39.8307 28.385H42.373V21.6151Z" fill="#636466"/>
<path d="M24.5762 11.4601V18.2301H31.3559C31.3559 14.845 27.966 11.4601 24.5762 11.4601Z" fill="#636466"/>
<path d="M46.6102 33.4625C46.1017 33.4625 45.7627 33.801 45.7627 34.3088C45.7627 34.8165 46.1017 35.155 46.6102 35.155H50V33.4625H46.6102Z" fill="#636466"/>
<path d="M46.6102 36.8475C46.1017 36.8475 45.7627 37.186 45.7627 37.6938C45.7627 38.2016 46.1017 38.54 46.6102 38.54H50V36.8475H46.6102Z" fill="#636466"/>
</svg>
