<svg width="50" height="50" viewBox="0 0 50 50" fill="none" xmlns="http://www.w3.org/2000/svg">
<g clip-path="url(#clip0_3412_334)">
<path d="M23.2757 29.3042C22.7584 29.3042 22.4136 28.9599 22.4136 28.4433V22.4175C22.4136 20.5236 23.9653 18.9742 25.8618 18.9742C33.017 18.3716 43.9652 17.4246 44.6549 17.2525C46.2066 16.9082 47.4135 15.4447 47.4135 13.8092V10.3659C47.4135 8.472 45.8617 6.92256 43.9652 6.92256C43.448 6.92256 43.1031 6.57823 43.1031 6.06168C43.1031 5.54514 43.448 5.20081 43.9652 5.20081C46.8101 5.20081 49.1377 7.52502 49.1377 10.3659V13.8092C49.1377 16.3056 47.4136 18.4577 44.9998 18.9742C44.2239 19.1465 28.9653 20.4377 25.948 20.6959C24.9136 20.6959 24.1377 21.4707 24.1377 22.4176V28.4434C24.1377 28.9599 23.7929 29.3042 23.2757 29.3042Z" fill="#BCBEC0"/>
<path d="M29.3102 28.4434H17.2412L18.1033 32.7475H19.8274V46.521C19.8274 48.4149 21.3792 49.9643 23.2757 49.9643C25.1722 49.9643 26.7239 48.4148 26.7239 46.521V32.7475H28.448L29.3102 28.4434Z" fill="#FF0000"/>
<path d="M42.2413 12.0875H5.17236C4.22412 12.0875 3.44824 11.3127 3.44824 10.3658V1.75742C3.44814 0.810536 4.22402 0.0357666 5.17236 0.0357666H42.2413C43.1896 0.0357666 43.9654 0.810536 43.9654 1.75742V10.3658C43.9654 11.3127 43.1896 12.0875 42.2413 12.0875Z" fill="#DCDDDE"/>
<path d="M3.44805 6.92244H1.72393C1.20664 6.92244 0.861816 6.57811 0.861816 6.06156C0.861816 5.54501 1.20664 5.20068 1.72393 5.20068H3.44805C3.96533 5.20068 4.31016 5.54501 4.31016 6.06156C4.31016 6.57811 3.96533 6.92244 3.44805 6.92244Z" fill="#BCBEC0"/>
<path d="M19.8276 43.0776H22.4139V41.356H19.8276V43.0776Z" fill="#720000"/>
<path d="M19.8276 46.521H22.4139V44.7993H19.8276V46.521Z" fill="#720000"/>
<path d="M43.9657 2.61829H37.0691C36.5519 2.61829 36.207 2.96262 36.207 3.47916C36.207 3.99571 36.5519 4.34004 37.0691 4.34004H43.9657V2.61829Z" fill="#BCBEC0"/>
<path d="M43.9653 7.78333H28.448C27.9308 7.78333 27.5859 8.12766 27.5859 8.6442C27.5859 9.16075 27.9308 9.50508 28.448 9.50508H43.9653V7.78333Z" fill="#BCBEC0"/>
<path d="M21.5518 2.61829H3.44824V4.33994H21.5518C22.069 4.33994 22.4139 3.99561 22.4139 3.47907C22.4139 2.96252 22.0689 2.61829 21.5518 2.61829Z" fill="#BCBEC0"/>
<path d="M12.9311 7.78333H3.44824V9.50498H12.931C13.4482 9.50498 13.7931 9.16065 13.7931 8.6441C13.7931 8.12756 13.4482 7.78333 12.9311 7.78333Z" fill="#BCBEC0"/>
</g>
<defs>
<clipPath id="clip0_3412_334">
<rect width="50" height="49.9285" fill="white" transform="translate(0 0.0357666)"/>
</clipPath>
</defs>
</svg>
