<svg width="50" height="51" viewBox="0 0 50 51" fill="none" xmlns="http://www.w3.org/2000/svg">
<path d="M27.1915 31.9634L25.9764 32.2768C25.6524 32.3297 25.2926 32.3123 24.9642 32.3114C21.325 32.3018 18.6958 29.3165 17.2945 26.2147L17.0565 25.6344C16.835 25.0646 16.867 25.3681 16.4563 25.0682L16.4305 25.0486C15.3657 24.2648 14.607 20.8548 16.1734 20.0713L16.214 20.0519C16.2116 20.0267 16.0344 19.1328 16.0297 19.1236C15.97 19.0074 14.7209 18.7386 14.3498 18.2838L14.3217 18.2488C14.2263 18.1323 14.158 18.0177 14.11 17.874L14.0892 17.8063C13.8348 16.864 14.8852 16.1856 15.6054 15.8454C15.9531 15.6811 15.9208 15.7892 15.9755 15.4093C16.3603 12.734 17.7741 10.407 19.9779 8.81606C20.5123 8.43022 21.1155 8.07368 21.7486 7.87676L21.7736 7.86919C21.7356 7.70708 21.6587 7.55791 21.6334 7.39111C21.537 6.75645 22.0072 6.36992 22.5924 6.28418L26.9811 6.29385C27.1979 6.29399 27.4521 6.26646 27.6592 6.33379L27.8057 6.38506C28.4143 6.68042 28.4836 7.26055 28.2216 7.82036C28.316 7.88857 28.3971 7.93843 28.5032 7.98633C31.5383 9.35645 33.6899 12.2866 34.0831 15.5931C34.1246 15.9414 35.4071 16.1292 35.8263 17.0982L35.8393 17.1287C36.4219 18.4113 34.7504 18.7798 33.9665 19.1165C33.8612 19.2729 33.796 19.8113 33.7237 20.0251L33.7151 20.0499C34.3688 20.4106 34.4358 20.5247 34.679 21.1585L34.7116 21.2547C34.9498 22.3459 34.3657 24.9403 33.1082 25.2351L32.6306 26.4186C31.5731 28.7222 29.5866 31.0767 27.1915 31.9634ZM24.1775 7.67852C23.8313 7.67856 23.4459 7.646 23.105 7.69321L24.2135 10.8165C24.5188 10.8723 25.4603 10.8673 25.7985 10.8332L26.8887 7.68892L24.1775 7.67852ZM22.136 9.14531C20.0518 10.1705 18.4683 11.7048 17.7 13.9479L17.3695 15.1603C18.7258 14.7238 20.1424 14.479 21.5549 14.3206L22.7597 14.1651L25.6494 14.0923C26.9826 14.1286 29.1015 14.3142 30.4127 14.6205L32.6241 15.1503C32.4898 14.6715 32.4028 14.2031 32.2266 13.733C31.5263 11.8647 30.1948 10.4295 28.4739 9.46328L27.7992 9.14712L27.3382 10.4993C26.9096 11.7248 26.4711 12.1565 25.0671 12.1618C24.1104 12.1653 23.3466 12.067 22.8806 11.0657L22.136 9.14531ZM23.8372 15.4838C22.669 15.5352 21.5122 15.6731 20.3611 15.8735L18.7676 16.185C17.9201 16.3907 16.1369 16.8898 15.5396 17.4632V17.48C16.1787 17.8692 17.524 18.0718 18.25 18.187C18.597 18.2421 19.0056 17.9602 19.3183 17.8346C21.2248 17.0689 23.3687 16.8916 25.4029 16.9239L26.251 16.9746C27.5392 17.0211 28.8498 17.2241 30.078 17.6231L31.2477 18.0855C31.8129 18.3444 33.378 17.9225 33.9794 17.7421C34.1674 17.6857 34.3433 17.6461 34.5128 17.5417C33.0823 16.1729 28.1789 15.5203 25.9263 15.486C25.7258 15.483 23.8406 15.4871 23.8372 15.4838ZM25.0348 18.3065L23.628 18.3176C23.3614 18.3322 23.103 18.3782 22.8392 18.4096L21.2887 18.6555C19.8357 18.9481 18.8928 19.7978 17.381 19.4481L17.391 19.4696C18.2989 21.4506 16.8104 21.1979 16.654 21.4378C16.5177 21.6469 16.5714 22.0446 16.6334 22.2725C16.7691 22.7709 16.7837 23.8476 17.3469 23.9048C17.6167 23.9322 17.7718 23.9781 17.9007 24.2407L18.3805 25.3586C19.4607 28.0529 21.8261 30.8972 24.9213 30.9922C28.2624 30.9677 30.2585 28.3117 31.5731 25.4981L31.9096 24.7375C32.0703 24.3454 32.1664 23.9766 32.6536 23.9036L32.897 23.8665C33.1325 23.4807 33.4993 22.135 33.412 21.7573L33.3994 21.7048C33.3653 21.569 33.2727 21.4145 33.1935 21.2993C32.0925 21.2063 32.2465 20.3443 32.5005 19.4988C31.925 19.5227 31.4474 19.6163 30.9065 19.3898L30.2955 19.1357C29.0134 18.6227 27.5514 18.3966 26.1829 18.3187L25.0348 18.3065Z" fill="#6B7280"/>
<path d="M10.4612 44.1963L6.97001 44.1969C6.18129 44.1967 6.26473 43.8455 6.26698 43.1582C6.26791 42.8725 6.25101 42.5709 6.28182 42.2873C6.54149 39.8975 8.37377 37.6055 10.5954 36.7575C11.0938 36.5673 11.625 36.4481 12.1407 36.3136L17.9658 34.7115C18.1068 34.673 18.1787 34.6961 18.2471 34.5637L18.9053 33.2623C18.9998 33.0748 19.0804 32.8721 19.1896 32.6934C19.4978 32.1889 20.2271 32.4919 20.3317 33.0378C20.405 33.4202 19.6379 34.804 19.4283 35.1032L19.4151 35.1218C19.4637 35.5338 19.6895 36.0795 19.8414 36.4607L20.1675 37.4853C21.9381 36.978 24.1399 38.0179 24.9866 39.613C26.0515 37.8264 27.8353 37.138 29.8077 37.4747C30.0014 37.1013 30.1156 36.6413 30.2486 36.2412L30.4786 35.5419C30.6077 35.1532 30.4099 34.9578 30.2412 34.6005L29.7434 33.4704C29.5329 32.944 29.7263 32.519 30.3292 32.4319C30.7982 32.4723 30.8963 32.844 31.0669 33.2215L31.3412 33.7912C31.4122 33.9436 31.4985 34.0877 31.5637 34.2429C31.7635 34.7187 31.6722 34.6025 32.1318 34.7276L36.9008 36.064C37.9391 36.3454 39.0493 36.5662 40.016 37.048C41.9241 37.9988 43.6602 40.3839 43.7152 42.573L43.7212 43.5083C43.7202 44.4557 42.9978 44.196 42.2428 44.1961L10.4612 44.1963ZM18.2199 36.0251L18.1736 36.041C17.407 36.2985 16.601 36.4878 15.8201 36.7L12.4574 37.6384C11.8046 37.8279 11.1359 37.9408 10.5313 38.2667C8.93153 39.129 7.99003 40.5756 7.65009 42.3239C7.62479 42.4541 7.58085 42.6412 7.6097 42.7725L14.0257 42.77L24.3233 42.7783C24.3884 42.5738 24.3532 41.7826 24.3286 41.5671C24.1191 39.7276 21.9447 38.1587 20.0928 38.9092C19.6743 39.0788 19.2893 39.0431 19.1254 38.5843L18.4891 36.6671C18.4222 36.4665 18.3733 36.2147 18.2648 36.0347L18.2199 36.0251ZM31.7507 36.0271L30.9577 38.2712C30.6156 39.3354 30.4692 38.9843 29.5158 38.7822C27.8846 38.4364 26.3847 39.4473 25.8332 40.9773C25.6245 41.5563 25.6518 42.1386 25.6564 42.7429L36.0716 42.77L42.4112 42.7754C42.2067 40.7796 40.9864 38.8846 39.1053 38.0941C38.6937 37.9212 38.2662 37.8221 37.8354 37.7097L31.7507 36.0271Z" fill="#6B7280"/>
</svg>
