<svg width="50" height="51" viewBox="0 0 50 51" fill="none" xmlns="http://www.w3.org/2000/svg">
<path d="M44.9245 44.5317H40.404L37.2172 34.6385L36.1018 34.9979L37.0547 37.9562H28.2578L26.2447 31.7062H35.0415L35.7388 33.8708L36.8542 33.5114L30.3851 13.4287L32.2808 7.54355C32.486 6.90635 32.3776 6.23047 31.9835 5.68936C31.5893 5.14814 30.9793 4.83789 30.3098 4.83789H23.9547C22.7218 4.83789 21.6395 5.62637 21.2615 6.7999L9.10791 44.5317H5.07568V45.7036H44.9246V44.5317H44.9245ZM37.4323 39.1281L39.173 44.5317H30.3758L28.6354 39.1281H37.4323ZM28.9603 14.0301H20.1638L20.3438 13.4712H29.1402L28.9603 14.0301ZM20.8945 18.918L22.0099 18.5587L20.9287 15.2019H28.5827L27.1271 19.7211H18.3306L19.7419 15.3395L20.8945 18.918ZM26.7496 20.8931L26.0348 23.1125H23.4767L23.079 21.8779H21.8479L23.5438 27.1431H15.9401L17.9533 20.8931H26.7496ZM24.7557 27.0836L23.8541 24.2844H25.6573L24.7557 27.0836ZM23.9212 28.3149L24.1401 28.9945L22.3458 34.565H13.5493L15.5625 28.3149H23.9212ZM24.7557 30.9057L29.1446 44.5317H20.3666L24.7557 30.9057ZM25.8673 30.5344L25.3713 28.9945L26.8885 24.2843H32.6507L34.664 30.5343L25.8673 30.5344ZM32.2732 23.1125H27.266L29.7696 15.3399L32.2732 23.1125ZM22.3769 7.15928C22.5983 6.47178 23.2324 6.00986 23.9547 6.00986H30.3098C30.6004 6.00986 30.8651 6.14453 31.0362 6.37949C31.2073 6.61436 31.2543 6.90781 31.1652 7.18438L29.5177 12.2993H20.7212L22.3769 7.15928ZM13.1719 35.7369H21.9685L19.1355 44.5318H10.3391L13.1719 35.7369Z" fill="#6B7280"/>
</svg>
