<svg width="50" height="51" viewBox="0 0 50 51" fill="none" xmlns="http://www.w3.org/2000/svg">
<path d="M43.6237 36.7414C44.5566 36.7414 45.3129 35.9896 45.3129 35.0622C45.3129 34.1348 44.5566 33.3831 43.6237 33.3831C42.6908 33.3831 41.9346 34.1348 41.9346 35.0622C41.9346 35.9896 42.6908 36.7414 43.6237 36.7414Z" stroke="#6B7280" stroke-width="2" stroke-linecap="round" stroke-linejoin="round"/>
<path d="M39.8989 35.8335C40.3304 35.8335 40.6802 35.4837 40.6802 35.0522C40.6802 34.6208 40.3304 34.271 39.8989 34.271C39.4675 34.271 39.1177 34.6208 39.1177 35.0522C39.1177 35.4837 39.4675 35.8335 39.8989 35.8335Z" fill="#6B7280"/>
<path d="M10.1011 35.8335C10.5325 35.8335 10.8823 35.4837 10.8823 35.0522C10.8823 34.6208 10.5325 34.271 10.1011 34.271C9.6696 34.271 9.31982 34.6208 9.31982 35.0522C9.31982 35.4837 9.6696 35.8335 10.1011 35.8335Z" fill="#6B7280"/>
<path d="M13.8257 35.8335C14.2572 35.8335 14.6069 35.4837 14.6069 35.0522C14.6069 34.6208 14.2572 34.271 13.8257 34.271C13.3942 34.271 13.0444 34.6208 13.0444 35.0522C13.0444 35.4837 13.3942 35.8335 13.8257 35.8335Z" fill="#6B7280"/>
<path d="M17.5503 35.8335C17.9818 35.8335 18.3315 35.4837 18.3315 35.0522C18.3315 34.6208 17.9818 34.271 17.5503 34.271C17.1188 34.271 16.769 34.6208 16.769 35.0522C16.769 35.4837 17.1188 35.8335 17.5503 35.8335Z" fill="#6B7280"/>
<path d="M21.2754 35.8335C21.7069 35.8335 22.0566 35.4837 22.0566 35.0522C22.0566 34.6208 21.7069 34.271 21.2754 34.271C20.8439 34.271 20.4941 34.6208 20.4941 35.0522C20.4941 35.4837 20.8439 35.8335 21.2754 35.8335Z" fill="#6B7280"/>
<path d="M25 35.8335C25.4315 35.8335 25.7812 35.4837 25.7812 35.0522C25.7812 34.6208 25.4315 34.271 25 34.271C24.5685 34.271 24.2188 34.6208 24.2188 35.0522C24.2188 35.4837 24.5685 35.8335 25 35.8335Z" fill="#6B7280"/>
<path d="M28.7246 35.8335C29.1561 35.8335 29.5059 35.4837 29.5059 35.0522C29.5059 34.6208 29.1561 34.271 28.7246 34.271C28.2931 34.271 27.9434 34.6208 27.9434 35.0522C27.9434 35.4837 28.2931 35.8335 28.7246 35.8335Z" fill="#6B7280"/>
<path d="M32.4497 35.8335C32.8812 35.8335 33.231 35.4837 33.231 35.0522C33.231 34.6208 32.8812 34.271 32.4497 34.271C32.0182 34.271 31.6685 34.6208 31.6685 35.0522C31.6685 35.4837 32.0182 35.8335 32.4497 35.8335Z" fill="#6B7280"/>
<path d="M36.1743 35.8335C36.6058 35.8335 36.9556 35.4837 36.9556 35.0522C36.9556 34.6208 36.6058 34.271 36.1743 34.271C35.7428 34.271 35.3931 34.6208 35.3931 35.0522C35.3931 35.4837 35.7428 35.8335 36.1743 35.8335Z" fill="#6B7280"/>
<path d="M39.8989 21.9971V30.2499" stroke="#6B7280" stroke-width="2" stroke-linecap="round" stroke-linejoin="round"/>
<path d="M36.1743 21.9971V30.2499" stroke="#6B7280" stroke-width="2" stroke-linecap="round" stroke-linejoin="round"/>
<path d="M21.2754 21.9971V30.2499" stroke="#6B7280" stroke-width="2" stroke-linecap="round" stroke-linejoin="round"/>
<path d="M28.7246 21.9971V30.2499" stroke="#6B7280" stroke-width="2" stroke-linecap="round" stroke-linejoin="round"/>
<path d="M32.4497 21.9971V30.2499" stroke="#6B7280" stroke-width="2" stroke-linecap="round" stroke-linejoin="round"/>
<path d="M17.5503 21.9971V30.2499" stroke="#6B7280" stroke-width="2" stroke-linecap="round" stroke-linejoin="round"/>
<path d="M6.37646 13.8V30.2499" stroke="#6B7280" stroke-width="2" stroke-linecap="round" stroke-linejoin="round"/>
<path d="M43.6235 13.8V30.2499" stroke="#6B7280" stroke-width="2" stroke-linecap="round" stroke-linejoin="round"/>
<path d="M10.1011 21.9971V30.2499" stroke="#6B7280" stroke-width="2" stroke-linecap="round" stroke-linejoin="round"/>
<path d="M13.8257 21.9971V30.2499" stroke="#6B7280" stroke-width="2" stroke-linecap="round" stroke-linejoin="round"/>
<path d="M25 17.5354V30.2482" stroke="#6B7280" stroke-width="2" stroke-linecap="round" stroke-linejoin="round"/>
<path d="M6.37618 36.7414C7.30908 36.7414 8.06534 35.9851 8.06534 35.0522C8.06534 34.1193 7.30908 33.363 6.37618 33.363C5.44328 33.363 4.68701 34.1193 4.68701 35.0522C4.68701 35.9851 5.44328 36.7414 6.37618 36.7414Z" stroke="#6B7280" stroke-width="2" stroke-linecap="round" stroke-linejoin="round"/>
</svg>
